<svg xmlns="http://www.w3.org/2000/svg" width="31.5" height="31.5" viewBox="0 0 31.5 31.5">
  <path id="Icon_awesome-phone-square-alt" data-name="Icon awesome-phone-square-alt" d="M28.125,2.25H3.375A3.375,3.375,0,0,0,0,5.625v24.75A3.375,3.375,0,0,0,3.375,33.75h24.75A3.375,3.375,0,0,0,31.5,30.375V5.625A3.375,3.375,0,0,0,28.125,2.25ZM26.973,23.862l-1.055,4.57a1.055,1.055,0,0,1-1.027.818A20.392,20.392,0,0,1,4.5,8.859a1.1,1.1,0,0,1,.818-1.027l4.57-1.055a1.282,1.282,0,0,1,.237-.027,1.144,1.144,0,0,1,.97.639L13.2,12.311a1.259,1.259,0,0,1,.085.416,1.2,1.2,0,0,1-.387.816l-2.664,2.18a16.306,16.306,0,0,0,7.789,7.789l2.18-2.664a1.2,1.2,0,0,1,.816-.387,1.255,1.255,0,0,1,.416.085l4.922,2.109a1.143,1.143,0,0,1,.639.97,1.224,1.224,0,0,1-.027.237Z" transform="translate(0 -2.25)" fill="#e2c044"/>
</svg>
