<svg xmlns="http://www.w3.org/2000/svg" width="31.897" height="21.875" viewBox="0 0 31.897 21.875">
  <g id="Icon_ionic-ios-mail" data-name="Icon ionic-ios-mail" transform="translate(-3.375 -7.875)">
    <path id="Path_1" data-name="Path 1" d="M35.012,10.361l-8.25,8.409a.148.148,0,0,0,0,.215l5.774,6.154a1,1,0,0,1-1.411,1.412L25.374,20.42a.157.157,0,0,0-.222,0l-1.4,1.427a6.172,6.172,0,0,1-4.4,1.857,6.3,6.3,0,0,1-4.493-1.911L13.5,20.42a.157.157,0,0,0-.222,0L7.531,26.55A1,1,0,0,1,6.12,25.139l5.774-6.154a.163.163,0,0,0,0-.215L3.636,10.361a.151.151,0,0,0-.261.107V27.295A2.462,2.462,0,0,0,5.829,29.75h26.99a2.462,2.462,0,0,0,2.454-2.455V10.468A.153.153,0,0,0,35.012,10.361Z" transform="translate(0 0)" fill="#e2c044"/>
    <path id="Path_2" data-name="Path 2" d="M19.323,20.749A4.4,4.4,0,0,0,22.337,19.6L34.429,8.367A2.57,2.57,0,0,0,32.9,7.875H5.752a2.553,2.553,0,0,0-1.526.492L16.318,19.6A4.4,4.4,0,0,0,19.323,20.749Z" fill="#e2c044"/>
  </g>
</svg>
