<svg xmlns="http://www.w3.org/2000/svg" width="26.196" height="25.173" viewBox="0 0 26.196 25.173">
  <path id="Icon_awesome-phone-square-alt" data-name="Icon awesome-phone-square-alt" d="M21.6,2.25H2.592A2.539,2.539,0,0,0,0,4.733V22.94a2.539,2.539,0,0,0,2.592,2.483H21.6A2.539,2.539,0,0,0,24.2,22.94V4.733A2.539,2.539,0,0,0,21.6,2.25Zm-.885,15.9-.81,3.362a.8.8,0,0,1-.789.6c-8.641,0-15.663-6.709-15.663-15a.82.82,0,0,1,.628-.756L7.6,5.581a1.026,1.026,0,0,1,.182-.02.881.881,0,0,1,.745.47l1.62,3.621a.892.892,0,0,1,.065.306.865.865,0,0,1-.3.6l-2.046,1.6a12.273,12.273,0,0,0,5.983,5.73l1.674-1.96a.935.935,0,0,1,.627-.284,1,1,0,0,1,.319.063l3.781,1.552a.84.84,0,0,1,.491.713.864.864,0,0,1-.021.174Z" transform="translate(1 -1.25)" fill="rgba(255,255,255,0)" stroke="#fff" stroke-width="2"/>
</svg>
